<svg xmlns="http://www.w3.org/2000/svg" version="1.1" xmlns:xlink="http://www.w3.org/1999/xlink" width="200" height="200"><svg xmlns="http://www.w3.org/2000/svg" version="1.1" xmlns:xlink="http://www.w3.org/1999/xlink" width="200" height="200"><svg xmlns="http://www.w3.org/2000/svg" version="1.1" xmlns:xlink="http://www.w3.org/1999/xlink" viewBox="0 0 200 200"><rect width="200" height="200" fill="url('#gradient')"></rect><defs><linearGradient id="gradient" gradientTransform="rotate(45 0.5 0.5)"><stop offset="0%" stop-color="#000000"></stop><stop offset="100%" stop-color="#b42c2c"></stop></linearGradient></defs><g><g fill="#89d02f" transform="matrix(4.556736711990111,0,0,4.556736711990111,6.7928520210741254,128.00360626885563)" stroke="#a8dc9f" stroke-width="0.2"><path d="M13.13-7.47L13.13-6.82Q13.13-4.84 12.48-3.37Q11.83-1.90 10.67-1.02L10.67-1.02L12.97 0.80L10.85 2.60L7.79 0.14Q7.36 0.20 6.93 0.20L6.93 0.20Q5.12 0.20 3.71-0.64Q2.30-1.48 1.52-3.05Q0.73-4.61 0.70-6.64L0.70-6.64L0.70-7.39Q0.70-9.49 1.47-11.08Q2.24-12.68 3.66-13.54Q5.08-14.41 6.91-14.41L6.91-14.41Q8.72-14.41 10.14-13.55Q11.55-12.70 12.34-11.11Q13.13-9.52 13.13-7.47L13.13-7.47ZM9.65-6.76L9.65-7.41Q9.65-9.53 8.94-10.63Q8.23-11.73 6.91-11.73L6.91-11.73Q5.56-11.73 4.87-10.64Q4.19-9.56 4.18-7.47L4.18-7.47L4.18-6.82Q4.18-4.72 4.87-3.60Q5.57-2.48 6.93-2.48L6.93-2.48Q8.24-2.48 8.94-3.58Q9.64-4.69 9.65-6.76L9.65-6.76ZM21.12 0L21.03-1.14Q19.98 0.20 18.20 0.20L18.20 0.20Q16.46 0.20 15.57-0.82Q14.68-1.83 14.68-3.72L14.68-3.72L14.68-10.57L17.97-10.57L17.97-3.70Q17.97-2.34 19.29-2.34L19.29-2.34Q20.42-2.34 20.90-3.15L20.90-3.15L20.90-10.57L24.21-10.57L24.21 0L21.12 0ZM29.48-10.57L29.48 0L26.18 0L26.18-10.57L29.48-10.57ZM25.99-13.29L25.99-13.29Q25.99-13.99 26.49-14.44Q27.00-14.89 27.81-14.89Q28.62-14.89 29.13-14.44Q29.64-13.99 29.64-13.29Q29.64-12.59 29.13-12.14Q28.62-11.69 27.81-11.69Q27.00-11.69 26.49-12.14Q25.99-12.59 25.99-13.29ZM40.10-8.79L35.39-2.54L40.21-2.54L40.21 0L31.23 0L31.23-1.84L35.92-8.03L31.44-8.03L31.44-10.57L40.10-10.57L40.10-8.79Z"></path></g></g></svg></svg><style>@media (prefers-color-scheme: light) { :root { filter: none; } }
@media (prefers-color-scheme: dark) { :root { filter: none; } }
</style></svg>